<?xml version="1.0" encoding="UTF-8"?>
<svg version="1.1" viewBox="0 0 800 800" width="100" height="100" xmlns="http://www.w3.org/2000/svg">
<path transform="translate(229,144)" d="m0 0h345l14 3 13 5 14 8 13 11 9 10 8 13 6 13 4 14 1 10v327l-1 17-5 19-8 16-8 11-10 11-15 11-18 8-18 4-16 1h-315l-17-1-17-4-17-8-11-8-12-11-9-12-9-17-4-14-2-13v-339l3-15 5-14 6-11 9-12 12-12 13-9 15-7 14-4z" fill="#FEFCEC"/>
<path transform="translate(229,144)" d="m0 0h345l14 3 13 5 14 8 13 11 9 10 8 13 6 13 4 14 1 10v327l-1 17-5 19-8 16-8 11-10 11-15 11-18 8-18 4-16 1h-315l-17-1-17-4-17-8-11-8-12-11-9-12-9-17-4-14-2-13v-339l3-15 5-14 6-11 9-12 12-12 13-9 15-7 14-4zm-14 142-12 1h-40l-3 1v120l326 1v5l-39 1h-287v105l54 1v5l-54 1v39l3 17 6 15 9 13 13 13 13 8 13 5 10 2 10 1h327l15-2 14-5 11-6 9-7 10-10 8-13 5-11 3-14 1-12v-32l-1-1h-338l-68-1-1-5 408-1v-104l-1-1h-73l-61-1-1-5 136-1v-120l-1-1h-411l-12 1z" fill="#9B5B0D"/>
<path transform="translate(229,144)" d="m0 0h345l14 3 13 5 14 8 13 11 9 10 8 13 6 13 4 14 1 10v327l-1 17-5 19-8 16-8 11-10 11-15 11-18 8-18 4-16 1h-315l-17-1-17-4-17-8-11-8-12-11-9-12-9-17-4-14-2-13v-339l3-15 5-14 6-11 9-12 12-12 13-9 15-7 14-4zm42 15-43 1-15 4-16 8-9 7-8 7-10 14-7 16-3 14v50l55 1v6h-52l-3 1v120l326 1v5l-39 1h-287v105l54 1v5l-54 1v39l3 17 6 15 9 13 13 13 13 8 13 5 10 2 10 1h327l15-2 14-5 11-6 9-7 10-10 8-13 5-11 3-14 1-12v-32l-1-1h-338l-68-1-1-5 408-1v-104l-1-1h-73l-61-1-1-5 136-1v-120l-1-1h-408l1-6 408-1v-37l-2-22-6-17-7-11-11-13-14-10-13-6-10-3-8-1-45-1z" fill="#181B25"/>
<path transform="translate(232,521)" d="m0 0h408l1 5-1 1-27 1h-312l-68-1-1-1z" fill="#05050B"/>
<path transform="translate(232,281)" d="m0 0h409l-2 6-23 1-385-1z" fill="#030207"/>
<path transform="translate(158,409)" d="m0 0h329v5l-1 1-39 1h-229l-58-2-2-1z" fill="#040309"/>
<path transform="translate(504,409)" d="m0 0h136l1 5-1 1-27 1h-47l-61-1-1-1z" fill="#05040A"/>
<path transform="translate(160,281)" d="m0 0h55v6l-12 1h-35l-8-1-1-5z" fill="#05040A"/>
<path transform="translate(594,150)" d="m0 0 5 1 16 9 13 11 9 10 5 8-1 3-3 2-14-16v-3l-1-1v-2h-2l-4-5-3-1v-2l-4-2-10-6-4-2v-3z" fill="#373739"/>
<path transform="translate(159,521)" d="m0 0h55l-1 5h-54l-1-4z" fill="#030207"/>
<path transform="translate(605,304)" d="m0 0 7 1 3 4v6l-4 4h-7l-4-4v-7z" fill="#08080F"/>
<path transform="translate(189,304)" d="m0 0 7 1 3 4v6l-3 4h-8l-4-4v-7z" fill="#08080E"/>
<path transform="translate(221,304)" d="m0 0 6 1 4 4v6l-4 4h-7l-4-4v-7z" fill="#08080E"/>
<path transform="translate(573,304)" d="m0 0 7 1 3 4-1 7-3 3h-7l-4-4v-6z" fill="#07070D"/>
<path transform="translate(541,304)" d="m0 0 7 1 3 4-1 7-3 3h-7l-4-4v-6z" fill="#0A0A11"/>
<path transform="translate(509,304)" d="m0 0 7 1 3 5-1 6-3 3h-7l-4-4v-6z" fill="#0A0A11"/>
<path transform="translate(477,304)" d="m0 0 7 1 3 5-1 6-3 3h-7l-4-4v-6z" fill="#0A0A11"/>
<path transform="translate(445,304)" d="m0 0 7 1 3 5-1 6-3 3h-7l-4-4v-6z" fill="#0A0A10"/>
<path transform="translate(413,304)" d="m0 0 7 1 3 5-1 6-3 3h-7l-4-4v-6z" fill="#0A0A11"/>
<path transform="translate(381,304)" d="m0 0 7 1 3 5-1 6-3 3h-7l-4-4v-6z" fill="#0A0A11"/>
<path transform="translate(349,304)" d="m0 0 7 1 3 5-1 6-3 3h-7l-4-4v-6z" fill="#0A0A11"/>
<path transform="translate(317,304)" d="m0 0 7 1 3 5-1 6-3 3h-7l-4-4v-6z" fill="#08080E"/>
<path transform="translate(285,304)" d="m0 0 7 1 3 5-1 6-3 3h-7l-4-4v-6z" fill="#07070D"/>
<path transform="translate(253,304)" d="m0 0 6 1 4 5v5l-4 4h-7l-4-4v-6z" fill="#0A0A11"/>
<path transform="translate(638,396)" d="m0 0h1v11h-11l6-7z" fill="#FEFEFE"/>
<path transform="translate(594,150)" d="m0 0 5 1 14 8v1h-6l-11-6v-3z" fill="#5F5F5E"/>
<path transform="translate(196,306)" d="m0 0 3 3v6l-2-1h-6l2-5 3-1z" fill="#181B25"/>
<path transform="translate(638,509)" d="m0 0h1v10h-6l3-8z" fill="#FEFEFE"/>
<path transform="translate(635,190)" d="m0 0 4 3 2-2 3 5-1 2h-3l-1 2-4-8z" fill="#030207"/>
<path transform="translate(221,309)" d="m0 0 5 1 3 2v2h-6l-3-1z" fill="#191C26"/>
<path transform="translate(634,288)" d="m0 0h5v5l-4 1-1-1z" fill="#FEFEFE"/>
<path transform="translate(574,308)" d="m0 0h2l4 4v2h-5l-3-1z" fill="#171A23"/>
<path transform="translate(607,308)" d="m0 0 3 2v2h3v2h-5l-4-1 1-4z" fill="#191C26"/>
<path transform="translate(318,309)" d="m0 0h3l3 3v2l-8-1z" fill="#191C26"/>
<path transform="translate(286,309)" d="m0 0h3l3 3v2l-8-1z" fill="#191C26"/>
</svg>
